<svg width="26" height="25" viewBox="0 0 26 25" fill="none" xmlns="http://www.w3.org/2000/svg">
<path fill-rule="evenodd" clip-rule="evenodd" d="M14.1406 0.679688C13.2344 -0.226562 11.7656 -0.226562 10.8594 0.679688L6.32344 5.21719L12.5 11.3953L18.6781 5.21719L14.1391 0.679688H14.1406ZM19.7812 6.32188L13.6062 12.5L19.7844 18.6781L24.3219 14.1391C25.2281 13.2328 25.2281 11.7656 24.3219 10.8609L19.7844 6.32188H19.7812ZM18.6781 19.7828L12.5 13.6047L6.32187 19.7828L10.8609 24.3203C11.7672 25.2266 13.2344 25.2266 14.1391 24.3203L18.6781 19.7828ZM5.21719 18.6781L11.3953 12.5L5.21719 6.32188L0.679687 10.8609C-0.226562 11.7672 -0.226562 13.2344 0.679687 14.1391L5.21719 18.6781Z" fill="black"/>
</svg>
