<svg width="98" height="240" viewBox="0 0 98 240" fill="none" xmlns="http://www.w3.org/2000/svg">
<g opacity="0.1">
<path d="M7.44529 98.0934C12.3066 104.937 18.3832 110.64 26.8904 114.062H75.5033C79.1492 112.921 81.5799 110.64 84.0105 108.359C96.1637 96.9527 101.025 79.8434 94.9484 65.0154L93.7331 62.7341C92.5178 59.3123 90.0871 57.031 87.6565 54.7498C86.4412 52.4685 84.0105 51.3279 82.7952 49.0467C77.9339 45.6248 73.0726 42.203 68.2114 37.6405C57.2735 27.3749 56.0581 11.4062 62.1348 0C56.0581 1.14062 49.9815 4.56248 45.1202 9.12496C26.8904 22.8124 19.5985 46.7654 28.1058 68.4372V70.7185C28.1058 71.8591 26.8904 72.9997 25.6751 74.1403C24.4598 75.2809 22.0291 74.1403 20.8138 72.9997L19.5985 71.8591C12.3066 62.7341 11.0912 49.0467 15.9525 37.6405C5.01464 46.7654 -1.06197 61.5935 0.153352 76.4216C0.153352 79.8434 1.36867 83.2653 2.58399 86.6872C2.58399 90.109 5.01464 94.6715 7.44529 98.0934ZM52.4122 80.9841C53.6275 75.281 51.1969 70.7185 49.9815 66.156C48.7662 61.5935 48.7662 57.031 51.1969 52.4685L54.8428 59.3123C59.7041 66.156 68.2114 68.4372 70.642 77.5622V80.9841C70.642 86.6872 68.2114 92.3902 64.5654 95.8121C62.1348 96.9527 59.7041 99.234 57.2735 99.234C49.9815 101.515 41.4743 98.0934 36.613 93.5309C46.3356 93.5309 51.1969 86.6872 52.4122 80.9841ZM85.2259 125.468V148.281H73.0726L60.9194 239.53H36.613L24.4598 148.281H12.3066V125.468H85.2259Z" fill="black"/>
</g>
</svg>
